<svg width="207" height="124" viewBox="0 0 207 124" fill="none" xmlns="http://www.w3.org/2000/svg">
<path d="M65 111L84.5366 61.8121" stroke="white"/>
<line x1="70.5802" y1="67.7284" x2="81.5802" y2="50.7284" stroke="white"/>
<line x1="81.2171" y1="50.5496" x2="90.0887" y2="54.8269" stroke="white"/>
<line x1="89.4903" y1="54.9019" x2="95.4903" y2="84.9019" stroke="white"/>
<path d="M80.5 71.5L95.4557 103.794" stroke="white"/>
<line x1="94.7931" y1="103.545" x2="105.793" y2="98.5448" stroke="white"/>
<line x1="105.5" y1="98" x2="105.5" y2="73" stroke="white"/>
<line x1="105" y1="72.5" x2="115" y2="72.5" stroke="white"/>
<line x1="114.5" y1="73" x2="114.5" y2="65" stroke="white"/>
<line x1="115" y1="65.5" x2="105" y2="65.5" stroke="white"/>
<line x1="105.506" y1="64.924" x2="107.506" y2="51.924" stroke="white"/>
<line x1="95.504" y1="83.9367" x2="101.504" y2="36.9367" stroke="white"/>
<line x1="101.275" y1="36.5821" x2="136.275" y2="59.5821" stroke="white"/>
<line x1="136.354" y1="59.3536" x2="126.354" y2="69.3536" stroke="white"/>
<line x1="107.27" y1="52.5794" x2="121.27" y2="61.5794" stroke="white"/>
<line x1="121.4" y1="61.3" x2="118.4" y2="65.3" stroke="white"/>
<line x1="118.5" y1="65" x2="118.5" y2="73" stroke="white"/>
<line x1="129" y1="72.5" x2="130" y2="72.5" stroke="black"/>
<line x1="118.44" y1="72.763" x2="132.44" y2="98.7629" stroke="white"/>
<line x1="126.447" y1="69.2236" x2="125.447" y2="71.2236" stroke="white"/>
<line x1="125.45" y1="70.7822" x2="140.45" y2="101.782" stroke="white"/>
<line x1="132.176" y1="98.5318" x2="140.176" y2="101.532" stroke="white"/>
<ellipse cx="147.5" cy="99" rx="3.5" ry="3" fill="#D9D9D9"/>
<ellipse cx="156.5" cy="99" rx="3.5" ry="3" fill="#D9D9D9"/>
<ellipse cx="165.5" cy="99" rx="3.5" ry="3" fill="#D9D9D9"/>
<line x1="70.5" y1="68" x2="70.5" y2="29" stroke="white"/>
<line x1="71.147" y1="29.4779" x2="58.147" y2="33.4779" stroke="white"/>
<line x1="58.4986" y1="32.9621" x2="64.4986" y2="111.962" stroke="white"/>
</svg>
